<svg version="1" xmlns="http://www.w3.org/2000/svg" width="400" height="400" viewBox="0 0 300.000000 300.000000"><path d="M136.5 9.8c-.2.2-3 .8-6.2 1.2-10 1.4-11.6 1.8-21.8 5-12 3.8-20.3 7.6-30.8 14.1-14.1 8.8-27.1 20-36.2 31.4-2.2 2.8-4.2 5.2-4.5 5.5-1.9 1.7-11.5 18.1-14.8 25.2-3.8 8-7.8 19.3-8.8 24.8-.3 1.4-.9 4.2-1.5 6.2-.5 2-1.2 5.6-1.5 8-.2 2.4-.7 5.4-1 6.7-.6 2.8-.6 26.6 0 30.1.3 1.4.7 4.3 1.1 6.5.8 6.1 5.3 22.9 7.5 28.5 3.3 8.4 9 19.1 14.8 28 7.5 11.3 26 29.8 37.6 37.4 8.4 5.5 27.3 15.2 31.3 15.9 1 .2 2.5.7 3.3 1 14.2 5.5 39.5 8.2 59.5 6.3 14.3-1.3 35.3-7.5 49.2-14.5 8.1-4 21.5-12.7 22.1-14.2.2-.5.8-.9 1.3-.9.9 0 1.6-.6 11.8-9.5 10.4-9.1 17.6-18.8 25.5-34.5 1.6-3 3.2-6.2 3.7-7 .5-.8 1.2-2.2 1.5-3 .3-.8 1-2.4 1.4-3.5 2.6-6 6.8-20.2 7.7-26 .2-1.7.6-3.6.9-4.4 1.6-4.8 2.3-26.8 1.1-38.8-.6-6.7-3.5-21-5.6-27.8-4.6-15.2-15.1-34.6-25-46.5-6.8-8.2-20.9-21.8-23.3-22.6-1-.3-1.8-.9-1.8-1.3 0-1.2-8.7-6.6-21.5-13.5-11.1-6-27.2-10.9-42.5-13.2-5.1-.7-33.8-1.2-34.5-.6zm47.1 34.7c12.4 2.3 23.1 5.8 33.4 11 5.2 2.6 9.7 5 10 5.4.3.3 1.2 1 2.1 1.6 7.1 4.4 11.1 7.7 19.4 16 5.2 5.3 9.5 10 9.5 10.5s.6 1.5 1.3 2.2c4 4.1 12.6 19.8 16.5 30.3 2.1 5.7 5.1 17.5 4.4 17.5-.4 0-1.4-2.1-2.1-4.8-2.1-7.3-9.9-21.8-16.3-30.4-26-34.4-72.5-50.7-113.8-39.9-11.1 3-15.6 4.7-24.9 9.7-10.6 5.8-17.9 11.2-25.8 19.2-15.1 15.4-25.9 34.6-30.4 53.9-.6 2.7-1.3 5.7-1.6 6.8-1.1 4.6-.9 28.5.3 35.7 7.4 42.3 38.7 77 79.4 87.8 10.4 2.8 10.8 2.8 14.5 2.9 2.2.1 2.6.4 1.6 1-.8.5-1.9.8-2.5.6-.6-.2-3.8-.6-7.1-.9-15.3-1.4-33.5-7-43.7-13.3-2.1-1.3-4-2.3-4.4-2.3-1.7 0-16.1-11-22.5-17.3-23.2-22.6-36.1-52.5-36.3-83.7 0-10.3 1-23.5 2-25.1.2-.3.6-2 .9-3.8.7-4.3 5.7-18.6 8.2-23.6 13.4-27.2 35.8-48.4 62.8-59.8 8.6-3.6 24.6-7.6 33.4-8.3 4.2-.4 7.7-.7 7.8-.8.8-.6 17.3.7 23.9 1.9zM204.5 98c30.4 6.8 54.3 27.8 64.4 56.7 3.7 10.6 4.5 15.3 4.5 28.8 0 12.3-.6 17-3.9 27.5-1.8 5.8-7.8 18-9.7 19.7-1 .9-1.8 2.2-1.8 2.9 0 1.6-12.9 14.9-18.5 19.1-4.4 3.3-18.8 11.2-21.4 11.7-.9.1-4.1 1-7.2 2-8.4 2.5-9.6 2.7-20.4 3.1-31.6 1.2-59.6-13.8-77.4-41.4-2.3-3.6-4.6-8.2-5.3-10.3-.6-2.1-1.6-3.8-2.1-3.8-.6 0-.8-.3-.4-.6.3-.3-.1-2.4-.9-4.7-2.9-8.1-4.3-19.2-3.8-29.6.9-19.6 9.4-39.4 23.5-54.9 12.8-14 32.4-24.4 50.4-26.9 2.2-.3 4.1-.6 4.3-.8.8-.7 21.2.4 25.7 1.5z"/></svg>