<?xml version="1.0" encoding="utf-8"?>
<!-- Generator: Adobe Illustrator 27.3.1, SVG Export Plug-In . SVG Version: 6.00 Build 0)  -->
<svg version="1.1" id="Layer_1" xmlns="http://www.w3.org/2000/svg" xmlns:xlink="http://www.w3.org/1999/xlink" x="0px" y="0px"
	 viewBox="0 0 66.3 66.3" style="enable-background:new 0 0 66.3 66.3;" xml:space="preserve">
<style type="text/css">
	.st0{fill:#FFFFFF;}
</style>
<g>
	<g>
		<path class="st0" d="M39.6,41.4c6.4,3.5,9.2,8.9,8.7,16.1c-10.3,0-20.5,0-30.7,0c-0.5-7.2,2.3-12.6,8.8-16.1
			c-1.8-2.2-2.6-4.6-2.1-7.4c0.4-2.1,1.4-3.9,3.1-5.3c3.5-2.8,8.4-2.7,11.6,0.4C42,31.9,43.2,37,39.6,41.4z M43.7,53.1
			c-0.4-4.7-5.9-9-11-8.8c-5.2,0.3-10.4,4.7-10.3,8.8C29.5,53.1,36.5,53.1,43.7,53.1z M37.4,35.6c0-2.5-2-4.5-4.4-4.5
			c-2.4,0-4.4,2-4.4,4.4c0,2.4,1.9,4.4,4.3,4.5C35.4,40,37.4,38,37.4,35.6z"/>
		<path class="st0" d="M8.8,9.1c1.4,0,2.8,0,4.3,0c0,1.4,0,2.8,0,4.3c-1.4,0-2.8,0-4.3,0C8.8,12,8.8,10.6,8.8,9.1z"/>
		<path class="st0" d="M21.9,13.4c-1.4,0-2.8,0-4.3,0c0-1.4,0-2.8,0-4.3c1.4,0,2.8,0,4.3,0C21.9,10.5,21.9,11.9,21.9,13.4z"/>
		<path class="st0" d="M26.4,9.1c1.5,0,2.9,0,4.3,0c0,1.4,0,2.8,0,4.3c-1.4,0-2.9,0-4.3,0C26.4,12,26.4,10.6,26.4,9.1z"/>
	</g>
	<path class="st0" d="M0,0.3c0,22,0,44,0,66c22,0,44,0,66,0c0-22,0-44,0-66C44,0.3,22,0.3,0,0.3z M4.4,4.7c19.1,0,38.1,0,57.2,0
		c0,4.4,0,8.7,0,13.1c-19,0-38.1,0-57.2,0C4.4,13.4,4.4,9.1,4.4,4.7z M61.6,61.9c-19.1,0-38.1,0-57.2,0c0-13.2,0-26.3,0-39.6
		c19.1,0,38.1,0,57.2,0C61.6,35.5,61.6,48.7,61.6,61.9z"/>
</g>
</svg>
