<svg id="Capa_1" enable-background="new 0 0 512 512" height="512" viewBox="0 0 512 512" width="512" xmlns="http://www.w3.org/2000/svg"><g><path d="m424.199 404.286-21.213-21.213-15.914 15.914v-44.702h-30v44.702l-15.914-15.914-21.213 21.213 52.127 52.126z"/><path d="m419.299 293.945v-293.945h-388.399v512h450.2v-218.055zm-358.399 188.055v-452h328.398v263.945h-126.253v188.055zm390.2 0h-79.027-79.027v-158.055h158.054z"/><path d="m105.9 74.602h148.917v30h-148.917z"/><path d="m105.9 194.602h184.193v30h-184.193z"/><path d="m105.9 314.602h92.097v30h-92.097z"/><path d="m105.9 254.602h92.097v30h-92.097z"/><path d="m105.9 134.602h238.398v30h-238.398z"/></g></svg>