<svg xmlns="http://www.w3.org/2000/svg" viewBox="0 0 70.78 70.56"><defs><style>.cls-1{fill:#fff;}</style></defs><g id="Layer_2" data-name="Layer 2"><g id="Layer_1-2" data-name="Layer 1"><path class="cls-1" d="M70.2,35.35,37.06.69a1.71,1.71,0,0,0-.69-.52,2.4,2.4,0,0,0-.9-.17,2.15,2.15,0,0,0-1.58.69L.61,35.35a2.47,2.47,0,0,0-.55,1,2.21,2.21,0,0,0,0,1.14,2.26,2.26,0,0,0,.59,1,3.39,3.39,0,0,0,.76.45,1.74,1.74,0,0,0,.83.14,2.54,2.54,0,0,0,.83-.21,1.88,1.88,0,0,0,.69-.45l3-3.1v33a2.19,2.19,0,0,0,.62,1.55A2.06,2.06,0,0,0,9,70.56H24.39a1.77,1.77,0,0,0,.52-.07,3,3,0,0,0,.45-.17,1.76,1.76,0,0,0,.41-.28,2.18,2.18,0,0,0,.34-.34,2,2,0,0,0,.24-.38,2.08,2.08,0,0,0,.17-.48,2.31,2.31,0,0,0,.07-.48l.07-22H44.23v22a2.14,2.14,0,0,0,.65,1.55,2.09,2.09,0,0,0,1.55.65H61.86a2.14,2.14,0,0,0,1.55-.65,2.09,2.09,0,0,0,.65-1.55v-33l3,3.1a2,2,0,0,0,1.58.69,2.09,2.09,0,0,0,1.52-.62,2.45,2.45,0,0,0,.65-1.58A2.09,2.09,0,0,0,70.2,35.35Zm-10.55-4v34.8h-11V44.1A2.14,2.14,0,0,0,48,42.55a2.1,2.1,0,0,0-1.55-.65h-22a2.14,2.14,0,0,0-1.55.65,2.1,2.1,0,0,0-.65,1.55l-.07,22.05h-11V31.35a2.08,2.08,0,0,0-.07-.55L35.46,5.44,59.71,30.8A3.43,3.43,0,0,0,59.65,31.35Z"/></g></g></svg>