<svg xmlns="http://www.w3.org/2000/svg" viewBox="0 0 68.6 65"><defs><style>.cls-1{fill:#026649;}</style></defs><g id="Layer_2" data-name="Layer 2"><g id="Layer_1-2" data-name="Layer 1"><path class="cls-1" d="M61.7,60.6H4.4V16.5H22.1l4.5-4.3-.1-.1H4.4a4,4,0,0,0-3.1,1.3A4.57,4.57,0,0,0,0,16.5V60.6a4,4,0,0,0,.6,2.2,4.89,4.89,0,0,0,1.6,1.6,4.28,4.28,0,0,0,2.2.6H61.7a4.16,4.16,0,0,0,3.1-1.3,4,4,0,0,0,1.3-3.1V26.1l-4.4,4.2ZM68.6,0H64.1a37.3,37.3,0,0,1-6.7,15.7A37,37,0,0,1,44.3,26.8a36.67,36.67,0,0,1-16.9,4.1c-.4,0-1.2,0-2.3-.1l8.1-8.1c.1-.1.3-.3.3-.4s.2-.3.2-.5.1-.4.1-.6a1.27,1.27,0,0,0-.1-.6c0-.2-.1-.3-.2-.5s-.2-.3-.3-.5a1.79,1.79,0,0,0-.7-.5,2.77,2.77,0,0,0-.9-.1,1.27,1.27,0,0,0-.6.1.76.76,0,0,0-.5.2c-.1.1-.3.2-.4.3L17.1,33l13,13.4a2.11,2.11,0,0,0,1.6.6,2.45,2.45,0,0,0,1.6-.6,2.07,2.07,0,0,0,.6-1,2,2,0,0,0,0-1.1,2.07,2.07,0,0,0-.6-1l-8-8h2.1a41.28,41.28,0,0,0,19.2-4.7A41,41,0,0,0,61.3,17.9,44.08,44.08,0,0,0,68.6,0Z"/></g></g></svg>

