<?xml version="1.0" encoding="iso-8859-1"?>
<!-- Generator: Adobe Illustrator 19.0.0, SVG Export Plug-In . SVG Version: 6.00 Build 0)  -->
<svg version="1.1" id="Layer_1" xmlns="http://www.w3.org/2000/svg" xmlns:xlink="http://www.w3.org/1999/xlink" x="0px" y="0px"
	 viewBox="0 0 512 512" style="enable-background:new 0 0 512 512;" xml:space="preserve">
<g>
	<g>
		<path d="M458.082,91.601h-39.856V0H93.773v91.601H53.918H0v286.497h93.773v46.673L180.531,512h237.696V378.098H512V91.601H458.082
			z M125.12,31.347h261.76v60.254H125.12V31.347z M85.265,122.948h8.509h324.454h8.509v66.37H85.265V122.948z M171.375,458.342
			l-24.233-24.364h24.233V458.342z M386.88,480.653H202.722v-78.021h-77.602v-94.819H386.88V480.653z M480.653,346.751h-62.426
			v-38.939h32.289v-31.347h-32.289H93.773H61.484v31.347h32.289v38.939H31.347V122.948h22.571v97.717h404.164v-97.717h22.571
			V346.751z"/>
	</g>
</g>
<g>
	<g>
		<rect x="370.928" y="146.296" width="19.681" height="19.681"/>
	</g>
</g>
<g>
	<g>
		<rect x="182.983" y="330.47" width="146.045" height="31.347"/>
	</g>
</g>
<g>
	<g>
		<rect x="230.296" y="377.323" width="99.631" height="31.347"/>
	</g>
</g>
<g>
	<g>
		<rect x="230.296" y="424.772" width="99.631" height="31.347"/>
	</g>
</g>
<g>
</g>
<g>
</g>
<g>
</g>
<g>
</g>
<g>
</g>
<g>
</g>
<g>
</g>
<g>
</g>
<g>
</g>
<g>
</g>
<g>
</g>
<g>
</g>
<g>
</g>
<g>
</g>
<g>
</g>
</svg>
