<svg xmlns="http://www.w3.org/2000/svg" viewBox="0 0 70.77 59.86"><defs><style>.cls-1{fill:#fff;}</style></defs><g id="Layer_2" data-name="Layer 2"><g id="Layer_1-2" data-name="Layer 1"><path class="cls-1" d="M70.71,29.79,62.55,1.66A1.61,1.61,0,0,0,62.14.8a2.65,2.65,0,0,0-.76-.59,2,2,0,0,0-.9-.21H9.61a2.18,2.18,0,0,0-.93.21A2.09,2.09,0,0,0,7.92.8a2.29,2.29,0,0,0-.45.86L.07,28.41a2.21,2.21,0,0,0,0,.73,2.59,2.59,0,0,0,.17.73A4.35,4.35,0,0,0,0,31.11V55.44a4.32,4.32,0,0,0,1.28,3.11,4.19,4.19,0,0,0,3.14,1.31H66.35a4.23,4.23,0,0,0,3.14-1.31,4.32,4.32,0,0,0,1.28-3.11V30.76A5.66,5.66,0,0,0,70.71,29.79ZM9.05,12.58H61.1l1.14,3.93H8Zm49.7-8.16,1.07,3.7H10.3l1-3.7ZM6.71,21H63.53l1.65,5.7H44.58a9.53,9.53,0,0,1-.45,3,8.63,8.63,0,0,1-1.28,2.49A8.74,8.74,0,0,1,40.91,34a8.41,8.41,0,0,1-2.52,1.21,10.53,10.53,0,0,1-3,.41A9.77,9.77,0,0,1,31.72,35a8.7,8.7,0,0,1-2.87-1.83A8.34,8.34,0,0,1,27,30.34a9.47,9.47,0,0,1-.69-3.66H5.11ZM66.35,55.43H4.42V31.1H22.6a13,13,0,0,0,4.84,6.6,13.46,13.46,0,0,0,8,2.38A14.63,14.63,0,0,0,41,39a12,12,0,0,0,4.42-3.11,14.15,14.15,0,0,0,2.8-4.8H66.35V55.43Z"/></g></g></svg>