<svg xmlns="http://www.w3.org/2000/svg" viewBox="0 0 64.89 68.66"><defs><style>.cls-1{fill:#fff;}</style></defs><g id="Layer_2" data-name="Layer 2"><g id="Layer_1-2" data-name="Layer 1"><path class="cls-1" d="M59.89,12.32H45V7.48a7.26,7.26,0,0,0-1-3.74A7.76,7.76,0,0,0,41.25,1a7.17,7.17,0,0,0-3.74-1h-10a7.36,7.36,0,0,0-2.34.39,6.81,6.81,0,0,0-2.07,1.09,9.32,9.32,0,0,0-1.6,1.6,6.81,6.81,0,0,0-1.09,2.07A7.36,7.36,0,0,0,20,7.49v4.84H5a4.83,4.83,0,0,0-3.55,1.44A4.82,4.82,0,0,0,0,17.32L2,63.67a4.87,4.87,0,0,0,1.44,3.51A4.74,4.74,0,0,0,7,68.66H56.9a4.76,4.76,0,0,0,3.55-1.48,4.87,4.87,0,0,0,1.44-3.51l3-46.35a4.94,4.94,0,0,0-5-5ZM25,7.48A2.53,2.53,0,0,1,27.52,5h10a2.39,2.39,0,0,1,1.75.74A2.41,2.41,0,0,1,40,7.48v4.84H25V7.48ZM56.89,63.66H7L5,17.31H20v5.15a4.11,4.11,0,0,0,.08.66,2.82,2.82,0,0,0,.66,1.13,2.14,2.14,0,0,0,1.75.7,2.56,2.56,0,0,0,1.87-.62A1.8,1.8,0,0,0,25,23.08V17.31H40v5.38l.12.58.35.78.74.62,1.29.27a2.54,2.54,0,0,0,1.21-.27,2,2,0,0,0,.74-.62,2.64,2.64,0,0,0,.35-.74c.08-.26.14-.47.19-.62V17.31h14.9Z"/></g></g></svg>