<svg xmlns="http://www.w3.org/2000/svg" viewBox="0 0 64.7 67.8"><defs><style>.cls-1{fill:#026649;}</style></defs><g id="Layer_2" data-name="Layer 2"><g id="Layer_1-2" data-name="Layer 1"><path class="cls-1" d="M62.4.4A4.33,4.33,0,0,0,60.5,0h-46a4.1,4.1,0,0,0-4.2,4.2V53.4a4.1,4.1,0,0,0,4.2,4.2h46a2.2,2.2,0,0,0,.8-.1c.3-.1.5-.1.8-.2a1.61,1.61,0,0,0,.7-.4,1.47,1.47,0,0,0,.6-.5c.2-.2.3-.4.5-.6s.3-.5.4-.7a6.89,6.89,0,0,0,.3-.8,2.77,2.77,0,0,0,.1-.9V4.2A4.09,4.09,0,0,0,62.4.4ZM59.7,52.6a2.5,2.5,0,0,1-1.8.8H17.1a2.74,2.74,0,0,1-2.6-2.6V6.8a3.08,3.08,0,0,1,.3-1.3,2.84,2.84,0,0,1,.9-1A2,2,0,0,1,17,4.1H57.8a2.5,2.5,0,0,1,1.8.8,2.41,2.41,0,0,1,.7,1.8l.1,44.1A2.41,2.41,0,0,1,59.7,52.6Z"/><path class="cls-1" d="M52.1,10.6a4.33,4.33,0,0,0-1.9-.4H4.2A4.1,4.1,0,0,0,0,14.4V63.6a4.1,4.1,0,0,0,4.2,4.2h46a2.2,2.2,0,0,0,.8-.1c.3-.1.5-.1.8-.2a1.61,1.61,0,0,0,.7-.4,1.47,1.47,0,0,0,.6-.5c.2-.2.3-.4.5-.6s.3-.5.4-.7a6.89,6.89,0,0,0,.3-.8,2.77,2.77,0,0,0,.1-.9V14.4A4.09,4.09,0,0,0,52.1,10.6Zm-4.6,3.7a2.5,2.5,0,0,1,1.8.8,2.41,2.41,0,0,1,.7,1.8L50.1,61a2.41,2.41,0,0,1-.7,1.8,2.5,2.5,0,0,1-1.8.8H6.8A2.5,2.5,0,0,1,5,62.8,2.5,2.5,0,0,1,4.2,61V17a3.08,3.08,0,0,1,.3-1.3,2.84,2.84,0,0,1,.9-1,2,2,0,0,1,1.3-.4"/><path class="cls-1" d="M50.2,10.2H4.2A4.1,4.1,0,0,0,0,14.4V63.6a4.1,4.1,0,0,0,4.2,4.2h46a2.2,2.2,0,0,0,.8-.1c.3-.1.5-.1.8-.2a1.61,1.61,0,0,0,.7-.4,1.47,1.47,0,0,0,.6-.5c.2-.2.3-.4.5-.6s.3-.5.4-.7a6.89,6.89,0,0,0,.3-.8,2.77,2.77,0,0,0,.1-.9V14.4M6.2,14.3H47.5a2.5,2.5,0,0,1,1.8.8,2.41,2.41,0,0,1,.7,1.8L50.1,61a2.41,2.41,0,0,1-.7,1.8,2.5,2.5,0,0,1-1.8.8H6.8A2.5,2.5,0,0,1,5,62.8,2.5,2.5,0,0,1,4.2,61V17a3.08,3.08,0,0,1,.3-1.3,2.84,2.84,0,0,1,.9-1,2,2,0,0,1,1.3-.4Z"/></g></g></svg>