<svg xmlns="http://www.w3.org/2000/svg" viewBox="0 0 60.52 60.79"><defs><style>.cls-1{fill:#00674a;}</style></defs><g id="Layer_2" data-name="Layer 2"><g id="Layer_1-2" data-name="Layer 1"><path class="cls-1" d="M57.07,31.56A18.48,18.48,0,0,0,43.45,3.47l1.62-1.36A1,1,0,0,0,43.78.58L40.16,3.63A1,1,0,0,0,40,5l3,3.62a1,1,0,0,0,.77.36,1,1,0,0,0,.64-.23,1,1,0,0,0,.12-1.41L43,5.42A16.51,16.51,0,0,1,55.74,29.91a18.48,18.48,0,1,0,1.33,1.65ZM42,58.79a16.5,16.5,0,1,1,16.49-16.5A16.52,16.52,0,0,1,42,58.79Z"/><path class="cls-1" d="M43.13,32.72a1,1,0,0,0-1.85,0L36.68,44h0l-2.22,5.47a1,1,0,0,0,1.85.75l2-4.83h7.87l2,4.83a1,1,0,0,0,.93.62.83.83,0,0,0,.37-.08A1,1,0,0,0,50,49.51ZM39.08,43.43l3.13-7.69,3.12,7.69Z"/><path class="cls-1" d="M20.35,49.46a1,1,0,0,0-1.2,1.6l2,1.46A16.08,16.08,0,0,1,3.44,40.21a15.88,15.88,0,0,1,.09-7.6A21,21,0,0,0,21,42a1,1,0,0,0,0-2A19,19,0,1,1,40,21a1,1,0,0,0,2,0A21,21,0,1,0,2.17,30.26s0,0,0,0A18,18,0,0,0,19.09,54.64a19.11,19.11,0,0,0,2-.11l-1.21,1.6a1,1,0,0,0,.2,1.4,1,1,0,0,0,.6.2,1,1,0,0,0,.8-.4l2.78-3.7a1,1,0,0,0-.2-1.39Z"/><path class="cls-1" d="M20,19.57h6.21a1.05,1.05,0,1,0,0-2.1H23.3a2.94,2.94,0,0,1-3-3.12c0-1.94.82-2.93,2.56-2.93a3.91,3.91,0,0,1,2.2.92h0a.9.9,0,0,0,1.4-.74.92.92,0,0,0-.18-.54h0a4.58,4.58,0,0,0-3.78-1.74,4.52,4.52,0,0,0-3.06,1.25,4.66,4.66,0,0,0-1.48,3.48,5,5,0,0,0,1.25,3.49,6.45,6.45,0,0,0-4.37,2.16A6.67,6.67,0,0,0,15,29a6.48,6.48,0,0,0,4.74,2h4.6a1.12,1.12,0,1,0,0-2.23H20a4.41,4.41,0,0,1-3.22-1.35,4.52,4.52,0,0,1,0-6.44A4.41,4.41,0,0,1,20,19.57Z"/></g></g></svg>