<svg xmlns="http://www.w3.org/2000/svg" viewBox="0 0 72.89 73.59"><defs><style>.cls-1{fill:#006548;stroke:#006548;stroke-miterlimit:10;stroke-width:1.89px;}</style></defs><g id="Layer_2" data-name="Layer 2"><g id="Layer_1-2" data-name="Layer 1"><path class="cls-1" d="M67.94,38.24a21.91,21.91,0,0,0,3.3-11.4,21.68,21.68,0,0,0-19.3-21.6l1.9-1.6a1,1,0,0,0,.1-1.6,1.15,1.15,0,0,0-1.7-.1l-4.3,3.6a1,1,0,0,0-.1,1.6l3.6,4.3a1.09,1.09,0,0,0,.9.4,1.33,1.33,0,0,0,.8-.3,1,1,0,0,0,.1-1.6l-1.9-2.3a19.43,19.43,0,0,1,17.5,19.3,18.75,18.75,0,0,1-2.5,9.5,21.66,21.66,0,1,0,5.6,14.5A21.33,21.33,0,0,0,67.94,38.24Zm-17.7,32a19.4,19.4,0,1,1,19.4-19.4A19.42,19.42,0,0,1,50.24,70.24Z"/><path class="cls-1" d="M51.54,39.64a1.21,1.21,0,0,0-2.2,0l-5.4,13.3h0l-2.6,6.4a1.14,1.14,0,0,0,.6,1.5,1.24,1.24,0,0,0,1.5-.6l2.3-5.7H55l2.3,5.7a1.08,1.08,0,0,0,1.1.7c.2,0,.3,0,.4-.1a1.07,1.07,0,0,0,.6-1.5Zm-4.7,12.6,3.7-9,3.7,9Z"/><path class="cls-1" d="M24.84,59.24a1.14,1.14,0,0,0-1.4,1.8l2.3,1.7A18.9,18.9,0,0,1,5,39.34a24.72,24.72,0,0,0,20.5,11,1.2,1.2,0,0,0,0-2.4,22.3,22.3,0,1,1,22.3-22.3,1.22,1.22,0,0,0,1.2,1.2,1.16,1.16,0,0,0,1.2-1.2,24.65,24.65,0,1,0-49.3,0,23.68,23.68,0,0,0,2.6,10.9h0a21.17,21.17,0,0,0,19.9,28.6,17,17,0,0,0,2.3-.1l-1.4,1.9a1.12,1.12,0,0,0,.2,1.6,1,1,0,0,0,.7.2,1.05,1.05,0,0,0,.9-.5l3.3-4.3a1.12,1.12,0,0,0-.2-1.6Z"/><path class="cls-1" d="M24.34,24.14h7.3a1.22,1.22,0,0,0,1.2-1.2,1.29,1.29,0,0,0-1.2-1.2h-3.4a3.49,3.49,0,0,1-3.6-3.7c0-2.3,1-3.4,3-3.4a5,5,0,0,1,2.6,1.1h0a1.42,1.42,0,0,0,.6.2,1.11,1.11,0,0,0,1.1-1.1,1.42,1.42,0,0,0-.2-.6h0a5.47,5.47,0,0,0-9.7,3.6,6.1,6.1,0,0,0,1.5,4.1,7.09,7.09,0,0,0-5.1,2.6,7.64,7.64,0,0,0-2.1,5.4,7.47,7.47,0,0,0,2.3,5.5,7.7,7.7,0,0,0,5.6,2.3h5.4a1.3,1.3,0,1,0,0-2.6h-5.1a5.07,5.07,0,0,1-3.8-1.6,5.29,5.29,0,0,1-1.6-3.8,5.07,5.07,0,0,1,1.6-3.8A4.28,4.28,0,0,1,24.34,24.14Z"/></g></g></svg>