<svg xmlns="http://www.w3.org/2000/svg" viewBox="0 0 73.01 73.34"><defs><style>.cls-1{fill:#fff;stroke:#fff;stroke-miterlimit:10;stroke-width:1.89px;}</style></defs><g id="Layer_2" data-name="Layer 2"><g id="Layer_1-2" data-name="Layer 1"><path class="cls-1" d="M68,38A21.7,21.7,0,0,0,52,5l1.9-1.6A1.17,1.17,0,1,0,52.4,1.64L48.14,5.22A1.16,1.16,0,0,0,48,6.87l3.58,4.26a1.15,1.15,0,0,0,.9.42,1.16,1.16,0,0,0,.89-1.92l-1.93-2.3a19.39,19.39,0,0,1,15,28.77A21.6,21.6,0,1,0,68,38ZM50.33,70A19.38,19.38,0,1,1,69.71,50.64,19.4,19.4,0,0,1,50.33,70Z"/><path class="cls-1" d="M51.63,39.39a1.18,1.18,0,0,0-2.18,0L44,52.69h0l-2.61,6.42A1.17,1.17,0,1,0,43.6,60l2.31-5.68h9.25L57.47,60a1.16,1.16,0,0,0,1.09.73,1.12,1.12,0,0,0,.44-.09,1.17,1.17,0,0,0,.64-1.53ZM46.87,52l3.67-9,3.67,9Z"/><path class="cls-1" d="M24.86,59.06a1.17,1.17,0,0,0-1.41,1.87l2.29,1.72A18.86,18.86,0,0,1,5.1,39.25a24.65,24.65,0,0,0,20.5,11,1.17,1.17,0,0,0,0-2.34,22.3,22.3,0,1,1,22.3-22.3,1.17,1.17,0,0,0,2.34,0A24.65,24.65,0,1,0,3.49,36.5s0,0,0,0a21.22,21.22,0,0,0,19.89,28.6A20.52,20.52,0,0,0,25.7,65l-1.41,1.88a1.18,1.18,0,0,0,.23,1.64,1.18,1.18,0,0,0,1.64-.24L29.42,64a1.18,1.18,0,0,0-.23-1.64Z"/><path class="cls-1" d="M24.4,24h7.3a1.24,1.24,0,0,0,0-2.47H28.34a3.46,3.46,0,0,1-3.55-3.67c0-2.28,1-3.43,3-3.43a4.65,4.65,0,0,1,2.59,1.08h0a1.07,1.07,0,0,0,.58.18A1,1,0,0,0,31.81,14h0a5.38,5.38,0,0,0-4.44-2,5.27,5.27,0,0,0-3.59,1.47A5.45,5.45,0,0,0,22,17.48a5.78,5.78,0,0,0,1.47,4.09,7.5,7.5,0,0,0-5.13,2.55A7.84,7.84,0,0,0,18.54,35a7.6,7.6,0,0,0,5.56,2.32h5.41a1.31,1.31,0,1,0,0-2.62h-5.1a5.39,5.39,0,0,1-5.36-5.36,5.12,5.12,0,0,1,1.58-3.78A5,5,0,0,1,24.4,24Z"/></g></g></svg>