<svg id="bold" enable-background="new 0 0 24 24" height="512" viewBox="0 0 24 24" width="512" xmlns="http://www.w3.org/2000/svg"><path d="m8.25 15c-.414 0-.75-.336-.75-.75v-3.75c0-.551-.448-1-1-1s-1 .449-1 1v3.75c0 .414-.336.75-.75.75s-.75-.336-.75-.75v-3.75c0-1.378 1.121-2.5 2.5-2.5s2.5 1.122 2.5 2.5v3.75c0 .414-.336.75-.75.75z"/><path d="m8.25 13h-3.5c-.414 0-.414-1.5 0-1.5h3.5c.414 0 .414 1.5 0 1.5z"/><path d="m19.25 15.504h-4.5c-.414 0-.75-.336-.75-.75s.336-.75.75-.75h4.5c.414 0 .75.336.75.75s-.336.75-.75.75z"/><path d="m15.25 20h-.5c-.414 0-.75-.336-.75-.75s.336-.75.75-.75h.5c1.24 0 2.25-1.009 2.25-2.25v-1.496c0-.414 1.5-.414 1.5 0v1.496c0 2.068-1.683 3.75-3.75 3.75z"/><path d="m19.25 20c-1.575 0-3.029-.922-3.796-2.406-.19-.368-.046-.82.321-1.011.37-.191.821-.045 1.011.322.509.983 1.452 1.594 2.464 1.594.414 0 .75.336.75.75s-.336.751-.75.751z"/><path d="m17 15.254c-.414 0-.75-.336-.75-.75v-1.004c0-.414.336-.75.75-.75s.75.336.75.75v1.004c0 .414-.336.75-.75.75z"/><path d="m6.75 20c-.192 0-.384-.073-.53-.22-.293-.293-.293-.768 0-1.061l10.5-10.5c.293-.293.768-.293 1.061 0s.293.768 0 1.061l-10.5 10.5c-.147.147-.339.22-.531.22z"/><path d="m21 1h-18c-1.654 0-3 1.346-3 3v16c0 1.654 1.346 3 3 3h18c1.654 0 3-1.346 3-3v-16c0-1.654-1.346-3-3-3zm0 20h-18c-.551 0-1-.448-1-1v-14h20v14c0 .552-.449 1-1 1z"/></svg>