<svg xmlns="http://www.w3.org/2000/svg" viewBox="0 0 67.74 67.72"><defs><style>.cls-1{fill:#fff;}</style></defs><g id="Layer_2" data-name="Layer 2"><g id="Layer_1-2" data-name="Layer 1"><path class="cls-1" d="M7.74,36H44.38a2,2,0,0,0,1.52-.63,2.13,2.13,0,0,0,.6-1.52,2,2,0,0,0-.6-1.49,2,2,0,0,0-1.52-.6H7.87l7.67-7.67a2.15,2.15,0,0,0,0-3,2.9,2.9,0,0,0-1-.56,1.84,1.84,0,0,0-1.09,0,2.32,2.32,0,0,0-1,.56L0,33.92,12.5,46.75a2.81,2.81,0,0,0,.73.43,2.08,2.08,0,0,0,.79.17,2.2,2.2,0,0,0,1.52-.6,1.92,1.92,0,0,0,.33-.46,2.86,2.86,0,0,0,.2-.53,2.41,2.41,0,0,0,.07-.53,1.93,1.93,0,0,0-.07-.53,2.29,2.29,0,0,0-.2-.53,1.74,1.74,0,0,0-.33-.46ZM63.5,0h-36a4.17,4.17,0,0,0-4.23,4.23V23.28h4.23V6.81a2.58,2.58,0,0,1,.33-1.26A2.56,2.56,0,0,1,30.1,4.23H60.85A2.37,2.37,0,0,1,62.64,5a2.52,2.52,0,0,1,.73,1.82l.07,54.1a2.52,2.52,0,0,1-.73,1.82,2.37,2.37,0,0,1-1.79.76H30.1a2.59,2.59,0,0,1-2.58-2.58V44.38H23.29V63.49a4.17,4.17,0,0,0,4.23,4.23h36a3.54,3.54,0,0,0,.83-.1,6.8,6.8,0,0,0,.79-.23,4.48,4.48,0,0,0,.73-.36,3,3,0,0,0,.63-.53,7.68,7.68,0,0,0,.5-.63,3.92,3.92,0,0,0,.4-.73,5.2,5.2,0,0,0,.26-.79,3.83,3.83,0,0,0,.1-.86V4.23A4,4,0,0,0,65.43.46,4.31,4.31,0,0,0,63.5,0Z"/></g></g></svg>