<svg xmlns="http://www.w3.org/2000/svg" viewBox="0 0 65.4 68.6"><defs><style>.cls-1{fill:#026649;}</style></defs><g id="Layer_2" data-name="Layer 2"><g id="Layer_1-2" data-name="Layer 1"><path class="cls-1" d="M0,4.2V53.4a2.77,2.77,0,0,0,.1.9,6.89,6.89,0,0,0,.3.8c.1.2.3.5.4.7s.3.4.5.6a1.47,1.47,0,0,0,.6.5,1.61,1.61,0,0,0,.7.4c.3.1.5.1.8.2a2.2,2.2,0,0,0,.8.1h46a4.1,4.1,0,0,0,4.2-4.2V4.2A4.1,4.1,0,0,0,50.2,0H4.2A4.33,4.33,0,0,0,2.3.4,4.09,4.09,0,0,0,0,4.2ZM4.3,50.8,4.4,6.7a2.41,2.41,0,0,1,.7-1.8,2.5,2.5,0,0,1,1.8-.8H47.7a2,2,0,0,1,1.3.4,2.84,2.84,0,0,1,.9,1,3.08,3.08,0,0,1,.3,1.3v44a2.74,2.74,0,0,1-2.6,2.6H6.8A2.5,2.5,0,0,1,5,52.6,2.41,2.41,0,0,1,4.3,50.8Z"/><path class="cls-1" d="M11,15.2V64.4a2.77,2.77,0,0,0,.1.9,6.89,6.89,0,0,0,.3.8c.1.2.3.5.4.7s.3.4.5.6a1.47,1.47,0,0,0,.6.5,1.61,1.61,0,0,0,.7.4c.3.1.5.1.8.2a2.2,2.2,0,0,0,.8.1h46a4.1,4.1,0,0,0,4.2-4.2V15.2A4.1,4.1,0,0,0,61.2,11h-46a4.33,4.33,0,0,0-1.9.4A4.09,4.09,0,0,0,11,15.2Z"/></g></g></svg>