<svg xmlns="http://www.w3.org/2000/svg" viewBox="0 0 53.9 64.7"><defs><style>.cls-1{fill:#026649;}</style></defs><g id="Layer_2" data-name="Layer 2"><g id="Layer_1-2" data-name="Layer 1"><path class="cls-1" d="M34.8,0H3.8A3.69,3.69,0,0,0,1.1,1.1,3.69,3.69,0,0,0,0,3.8V60.9a3.69,3.69,0,0,0,1.1,2.7,3.69,3.69,0,0,0,2.7,1.1H50.1a3.76,3.76,0,0,0,3.8-3.8V19ZM32.9,3.8h.4L50.1,20.7V21H32.9V3.8ZM50.1,44.4v6.4H3.8V44.4ZM3.8,40.5V34.2H50.1v6.3Zm0-10.2V23.9H29.1v.9h21v5.5ZM29.1,20.2H3.8V13.8H29.1Zm0-16.4V10H3.8V3.8ZM3.8,61V54.6H50.1V61Z"/></g></g></svg>