<svg xmlns="http://www.w3.org/2000/svg" viewBox="0 0 66.32 71.95"><defs><style>.cls-1{fill:#fff;}</style></defs><g id="Layer_2" data-name="Layer 2"><g id="Layer_1-2" data-name="Layer 1"><path class="cls-1" d="M63.78,12.73H45.89V5.81a5.79,5.79,0,0,0-3-5A6,6,0,0,0,40,0H26.32a5.82,5.82,0,0,0-4.14,1.67,5.47,5.47,0,0,0-1.75,4.14v6.92H2.55a2.42,2.42,0,0,0-1.79.76A2.48,2.48,0,0,0,0,15.28a2.42,2.42,0,0,0,.76,1.79,2.46,2.46,0,0,0,1.79.76h3.5L11.93,67a5.51,5.51,0,0,0,1.79,3.5A5.14,5.14,0,0,0,17.34,72H49a5.2,5.2,0,0,0,3.62-1.43A5.13,5.13,0,0,0,54.32,67l6-49.19h3.5A2.34,2.34,0,0,0,65,17.47a2.77,2.77,0,0,0,.95-.91,2.3,2.3,0,0,0,.36-1.27,2.42,2.42,0,0,0-.76-1.79A2.46,2.46,0,0,0,63.78,12.73ZM25.53,5.81a.71.71,0,0,1,.8-.8H40a.71.71,0,0,1,.8.8v6.92H25.53ZM49.31,66.53c-.05.21-.16.32-.32.32H17.34c-.16,0-.27-.11-.32-.32L11.21,17.82h43.9Z"/></g></g></svg>