<svg xmlns="http://www.w3.org/2000/svg" viewBox="0 0 66.33 66.31"><defs><style>.cls-1{fill:#fff;}</style></defs><g id="Layer_2" data-name="Layer 2"><g id="Layer_1-2" data-name="Layer 1"><path class="cls-1" d="M33.17,4.15a14.84,14.84,0,0,1,5.22,1,18.29,18.29,0,0,1,4.7,2.53,15.49,15.49,0,0,1,3.31,3.37,6.18,6.18,0,0,1,1.3,3.47V24.89a25.55,25.55,0,0,1-1.56,8.23A14.15,14.15,0,0,1,41.54,40a4.73,4.73,0,0,0-.91,1.07,4.24,4.24,0,0,0-.55,1.3,4.33,4.33,0,0,0-.1,1.39,4.06,4.06,0,0,0,2.4,3.31l18.09,8.56.13,0,.26.1.32.19.36.29.32.42.23.65.06.84v4l-58,.06V58a2.54,2.54,0,0,1,1.75-2.4L24.1,47a4,4,0,0,0,2.37-3.27A3.85,3.85,0,0,0,25,40a15.44,15.44,0,0,1-4.64-7,24.36,24.36,0,0,1-1.65-8.14V14.53A7.13,7.13,0,0,1,20.8,10a17.74,17.74,0,0,1,5.58-4.12A15.27,15.27,0,0,1,33.17,4.15Zm0-4.15a19.71,19.71,0,0,0-8.85,2.17,20.75,20.75,0,0,0-7.1,5.58,10.84,10.84,0,0,0-2.72,6.77V24.89a29,29,0,0,0,2,9.69,19.35,19.35,0,0,0,5.87,8.66L4.13,51.86a3.72,3.72,0,0,0-.45.19c-.17.08-.5.28-1,.58a12.49,12.49,0,0,0-1.26.91,5.28,5.28,0,0,0-1,1.13A2.33,2.33,0,0,0,0,55.93v6.29a4,4,0,0,0,1.2,2.89,4,4,0,0,0,3,1.2H62.24a4.1,4.1,0,0,0,4.09-4.09V55.93a2.53,2.53,0,0,0-.42-1.33,4.65,4.65,0,0,0-1-1.17c-.41-.32-.81-.62-1.2-.88a6.31,6.31,0,0,0-1-.58l-.39-.13L44.15,43.22A18,18,0,0,0,50,34.79a29.67,29.67,0,0,0,1.91-9.92V14.53a9.64,9.64,0,0,0-1.65-5.15A18.84,18.84,0,0,0,46,4.68a22,22,0,0,0-6-3.37A19.07,19.07,0,0,0,33.17,0Z"/></g></g></svg>